<?xml version="1.0" standalone="no"?>
<!DOCTYPE svg PUBLIC "-//W3C//DTD SVG 20010904//EN"
 "http://www.w3.org/TR/2001/REC-SVG-20010904/DTD/svg10.dtd">
<svg version="1.0" xmlns="http://www.w3.org/2000/svg"
 width="700.000000pt" height="700.000000pt" viewBox="0 0 700.000000 700.000000"
 preserveAspectRatio="xMidYMid meet">
<metadata>
Created by potrace 1.14, written by Peter Selinger 2001-2017
</metadata>
<g transform="translate(0.000000,700.000000) scale(0.100000,-0.100000)"
fill="#000000" stroke="none">
<path d="M3380 6991 c-146 -48 -237 -162 -365 -456 -7 -16 -26 -59 -43 -95
-16 -36 -71 -157 -122 -270 -179 -398 -223 -496 -261 -578 -22 -46 -39 -85
-39 -87 0 -2 -16 -39 -36 -82 -20 -43 -53 -116 -74 -163 -21 -47 -52 -115 -69
-153 l-30 -67 52 32 c29 18 62 38 73 45 50 32 239 120 329 153 183 69 360 110
590 135 52 6 353 7 385 1 14 -3 52 -7 85 -11 224 -24 488 -103 708 -211 48
-24 87 -41 87 -38 0 5 -85 168 -155 299 -18 33 -52 98 -77 145 -307 579 -349
657 -431 810 -37 70 -59 111 -152 285 -73 137 -165 239 -253 281 -56 27 -159
40 -202 25z"/>
<path d="M3359 5086 c-2 -2 -29 -6 -59 -9 -132 -14 -320 -68 -448 -129 -75
-35 -210 -115 -230 -135 -7 -7 -16 -13 -20 -13 -4 0 -19 -10 -33 -23 -15 -12
-48 -40 -75 -62 -43 -34 -150 -147 -202 -212 -9 -12 -25 -30 -34 -41 -35 -43
-136 -221 -170 -302 -34 -80 -73 -195 -82 -244 -2 -11 -9 -42 -15 -67 -31
-135 -33 -411 -5 -563 25 -137 76 -290 136 -411 36 -72 141 -242 157 -255 3
-3 22 -25 42 -50 210 -260 569 -471 889 -525 19 -3 42 -8 50 -10 52 -14 329
-22 385 -11 11 2 47 7 80 12 33 4 62 8 65 9 3 1 24 5 47 9 46 8 210 59 239 74
11 5 46 22 79 37 387 177 700 543 822 960 20 70 17 59 27 115 5 25 10 54 13
65 23 107 22 438 -2 507 -2 7 -6 27 -8 43 -15 97 -71 262 -129 380 -172 343
-460 608 -813 748 -85 34 -243 78 -330 92 -47 8 -369 17 -376 11z"/>
<path d="M1785 4617 c-33 -18 -123 -65 -199 -106 -77 -40 -162 -85 -190 -100
-28 -16 -91 -49 -141 -76 -49 -26 -121 -65 -160 -85 -38 -21 -110 -59 -160
-85 -49 -26 -117 -62 -150 -80 -64 -34 -156 -83 -300 -160 -225 -119 -260
-140 -313 -183 -113 -92 -163 -174 -167 -271 -3 -83 6 -115 53 -185 52 -77
143 -146 278 -211 63 -30 117 -55 119 -55 2 0 48 -20 101 -45 53 -25 97 -45
99 -45 2 0 43 -18 92 -41 48 -22 106 -49 128 -58 44 -20 113 -51 190 -86 28
-13 70 -32 95 -43 25 -11 122 -55 215 -97 94 -43 208 -94 255 -115 47 -21 117
-52 155 -70 105 -49 158 -71 161 -68 1 2 -22 46 -53 98 -153 265 -253 558
-288 850 -3 25 -7 63 -10 85 -6 49 -6 325 0 380 2 22 7 63 10 90 24 228 108
505 216 718 21 42 36 77 32 76 -5 0 -35 -15 -68 -32z"/>
<path d="M5053 4643 c56 -97 119 -210 140 -253 78 -160 168 -439 183 -570 3
-24 7 -47 9 -50 2 -3 6 -34 10 -70 4 -36 9 -78 11 -95 5 -40 5 -319 -1 -375
-30 -295 -101 -547 -224 -800 -22 -44 -37 -80 -34 -80 3 0 53 25 112 56 58 32
144 77 191 102 47 25 142 76 212 114 70 37 130 68 132 68 3 0 31 15 63 34 32
18 123 67 203 109 80 41 174 91 208 111 35 20 66 36 68 36 4 0 346 184 409
219 60 35 137 100 178 152 145 184 75 393 -178 534 -33 18 -197 95 -365 170
-168 76 -334 151 -370 167 -36 17 -128 58 -205 93 -262 117 -660 297 -699 316
-42 20 -60 24 -53 12z"/>
<path d="M4590 1918 c-250 -158 -614 -285 -897 -313 -32 -4 -69 -8 -83 -11
-34 -5 -312 -5 -375 1 -295 28 -554 101 -807 226 -43 21 -78 35 -78 32 0 -6
95 -187 230 -438 21 -38 58 -108 83 -155 24 -47 60 -114 79 -150 19 -36 61
-114 93 -175 75 -143 131 -248 165 -310 15 -27 53 -99 85 -160 122 -233 159
-290 234 -362 106 -99 237 -126 351 -71 121 58 195 160 315 433 16 36 46 102
115 255 87 192 93 205 233 515 74 165 146 325 160 355 14 30 35 78 47 105 12
28 31 70 43 95 61 136 76 170 74 169 -1 0 -31 -19 -67 -41z"/>
</g>
</svg>
